REM DIRINDEX 1\2,1\4,1\3\5,1\3\6,1\3\7
REM DIRNAME folder01,folder02,folder03,folder04,folder05,folder06,folder07
TITLE ""
FILE "CD3Track37.mp3" MP3
  TRACK 01 AUDIO
    TITLE "0:"
    INDEX 01 00:00:00
  TRACK 02 AUDIO
    TITLE "5:cjc082_3036"
    INDEX 01 00:00:27
  TRACK 03 AUDIO
    TITLE "0:"
    INDEX 01 00:01:46
  TRACK 04 AUDIO
    TITLE "6:cjc082_3037"
    INDEX 01 00:02:24
  TRACK 05 AUDIO
    TITLE "0:"
    INDEX 01 00:04:42
  TRACK 06 AUDIO
    TITLE "5:cjc082_3038"
    INDEX 01 00:05:20
  TRACK 07 AUDIO
    TITLE "0:"
    INDEX 01 00:06:30
  TRACK 08 AUDIO
    TITLE "6:cjc082_3039"
    INDEX 01 00:07:07
  TRACK 09 AUDIO
    TITLE "0:"
    INDEX 01 00:08:66
  TRACK 10 AUDIO
    TITLE "5:cjc082_3040"
    INDEX 01 00:09:45
  TRACK 11 AUDIO
    TITLE "0:"
    INDEX 01 00:10:51
  TRACK 12 AUDIO
    TITLE "6:cjc082_3041"
    INDEX 01 00:11:29
  TRACK 13 AUDIO
    TITLE "0:"
    INDEX 01 00:13:51
  TRACK 14 AUDIO
    TITLE "5:cjc082_3042"
    INDEX 01 00:14:27
  TRACK 15 AUDIO
    TITLE "0:"
    INDEX 01 00:15:40
  TRACK 16 AUDIO
    TITLE "6:cjc082_3043"
    INDEX 01 00:16:24
  TRACK 17 AUDIO
    TITLE "0:"
    INDEX 01 00:17:37
  TRACK 18 AUDIO
    TITLE "5:cjc082_3044"
    INDEX 01 00:18:15
  TRACK 19 AUDIO
    TITLE "0:"
    INDEX 01 00:19:36
  TRACK 20 AUDIO
    TITLE "6:cjc082_3045"
    INDEX 01 00:20:16
  TRACK 21 AUDIO
    TITLE "0:"
    INDEX 01 00:22:64
  TRACK 22 AUDIO
    TITLE "5:cjc082_3046"
    INDEX 01 00:23:42
  TRACK 23 AUDIO
    TITLE "0:"
    INDEX 01 00:24:45
  TRACK 24 AUDIO
    TITLE "6:cjc082_3047"
    INDEX 01 00:25:27
  TRACK 25 AUDIO
    TITLE "0:"
    INDEX 01 00:26:58
  TRACK 26 AUDIO
    TITLE "5:cjc082_3048"
    INDEX 01 00:27:36
  TRACK 27 AUDIO
    TITLE "0:"
    INDEX 01 00:28:57
  TRACK 28 AUDIO
    TITLE "6:cjc082_3049"
    INDEX 01 00:29:38
  TRACK 29 AUDIO
    TITLE "0:"
    INDEX 01 00:30:46
  TRACK 30 AUDIO
    TITLE "5:cjc082_3050"
    INDEX 01 00:31:24
  TRACK 31 AUDIO
    TITLE "0:"
    INDEX 01 00:32:27
  TRACK 32 AUDIO
    TITLE "6:cjc082_3051"
    INDEX 01 00:33:13
  TRACK 33 AUDIO
    TITLE "0:"
    INDEX 01 00:34:49
  TRACK 34 AUDIO
    TITLE "5:cjc082_3052"
    INDEX 01 00:35:21
  TRACK 35 AUDIO
    TITLE "0:"
    INDEX 01 00:36:33
  TRACK 36 AUDIO
    TITLE "6:cjc082_3053"
    INDEX 01 00:37:16
  TRACK 37 AUDIO
    TITLE "0:"
    INDEX 01 00:38:12
  TRACK 38 AUDIO
    TITLE "5:cjc082_3054"
    INDEX 01 00:38:65
  TRACK 39 AUDIO
    TITLE "0:"
    INDEX 01 00:40:13
  TRACK 40 AUDIO
    TITLE "6:cjc082_3055"
    INDEX 01 00:40:70
  TRACK 41 AUDIO
    TITLE "0:"
    INDEX 01 00:42:12
  TRACK 42 AUDIO
    TITLE "5:cjc082_3056"
    INDEX 01 00:42:65
  TRACK 43 AUDIO
    TITLE "0:"
    INDEX 01 00:43:74
  TRACK 44 AUDIO
    TITLE "6:cjc082_3057"
    INDEX 01 00:44:48
  TRACK 45 AUDIO
    TITLE "0:"
    INDEX 01 00:45:69
  TRACK 46 AUDIO
    TITLE "5:cjc082_3058"
    INDEX 01 00:46:41
  TRACK 47 AUDIO
    TITLE "0:"
    INDEX 01 00:47:48
  TRACK 48 AUDIO
    TITLE "6:cjc082_3059"
    INDEX 01 00:48:34
  TRACK 49 AUDIO
    TITLE "0:"
    INDEX 01 00:49:43
  TRACK 50 AUDIO
    TITLE "5:cjc082_3060"
    INDEX 01 00:50:19
  TRACK 51 AUDIO
    TITLE "0:"
    INDEX 01 00:51:54
  TRACK 52 AUDIO
    TITLE "6:cjc082_3061"
    INDEX 01 00:52:30
  TRACK 53 AUDIO
    TITLE "0:"
    INDEX 01 00:53:70
  TRACK 54 AUDIO
    TITLE "5:cjc082_3062"
    INDEX 01 00:54:48
  TRACK 55 AUDIO
    TITLE "0:"
    INDEX 01 00:56:57
  TRACK 56 AUDIO
    TITLE "6:cjc082_3063"
    INDEX 01 00:57:35
  TRACK 57 AUDIO
    TITLE "0:"
    INDEX 01 00:59:34
  TRACK 58 AUDIO
    TITLE "5:cjc082_3064"
    INDEX 01 01:00:10
  TRACK 59 AUDIO
    TITLE "0:"
    INDEX 01 01:01:15
  TRACK 60 AUDIO
    TITLE "6:cjc082_3065"
    INDEX 01 01:01:68
  TRACK 61 AUDIO
    TITLE "0:"
    INDEX 01 01:02:69
  TRACK 62 AUDIO
    TITLE "7:cjc082_3066"
    INDEX 01 01:04:47
  TRACK 63 AUDIO
    TITLE "0:"
    INDEX 01 01:15:07
